<svg xmlns="http://www.w3.org/2000/svg" width="64" height="64" viewBox="0 0 64 64">
  <rect width="64" height="64" rx="14" fill="#7C3AED" />
  <path
    d="M20 30c0-2.2 1.8-4 4-4h16c2.2 0 4 1.8 4 4v2H20v-2Zm2 6h20l-2.2 14.4A6 6 0 0 1 33.9 56H30a6 6 0 0 1-5.9-5.6L22 36Zm10-20c0-2 1.4-3.6 3.2-4.1l.4-.1v4.2h-3.6Zm6.4-4.2.4.1c1.8.5 3.2 2.1 3.2 4.1v0h-3.6v-4.2Z"
    fill="#FFF7ED"
  />
  <circle cx="24" cy="40" r="2" fill="#F59E0B" />
  <circle cx="32" cy="44" r="2" fill="#0EA5E9" />
  <circle cx="40" cy="40" r="2" fill="#F59E0B" />
</svg>
